<svg width="60" height="60" viewBox="0 0 60 60" fill="none" xmlns="http://www.w3.org/2000/svg">
<g clip-path="url(#clip0_1859_4477)">
<path d="M29.9955 59.9542C46.5514 59.9542 59.9726 46.533 59.9726 29.9771C59.9726 13.4212 46.5514 0 29.9955 0C13.4396 0 0.0183659 13.4212 0.0183659 29.9771C0.0183659 46.533 13.4396 59.9542 29.9955 59.9542Z" fill="#3A5A98"/>
<path d="M51.2014 8.82416C62.9082 20.5309 62.9087 39.5122 51.2009 51.2199C39.4936 62.9267 20.512 62.9267 8.80519 51.2199L51.2014 8.82416Z" fill="#345387"/>
<path d="M59.7785 33.3535L38.094 11.6685L26.8354 22.927L27.5061 23.5978L21.0961 30.0073L26.3427 35.2539L25.6526 35.9437L31.3327 41.6238L24.7844 48.1721L35.971 59.3587C48.5857 56.8059 58.323 46.3326 59.7785 33.3535Z" fill="#2E4D72"/>
<path d="M24.7545 18.8411C24.7545 19.7608 24.7545 23.8685 24.7545 23.8685H21.0714V30.0163H24.7545V48.2837H32.3205V30.0163H37.3976C37.3976 30.0163 37.8732 27.0679 38.1033 23.8453C37.4425 23.8453 32.3493 23.8453 32.3493 23.8453C32.3493 23.8453 32.3493 20.2683 32.3493 19.6415C32.3493 19.0138 33.1739 18.1689 33.9894 18.1689C34.8036 18.1689 36.5214 18.1689 38.1118 18.1689C38.1118 17.331 38.1118 14.4394 38.1118 11.7688C35.9883 11.7688 33.5725 11.7688 32.5069 11.7688C24.5672 11.7684 24.7545 17.9219 24.7545 18.8411Z" fill="white"/>
</g>
<defs>
<clipPath id="clip0_1859_4477">
<rect width="60" height="60" fill="white"/>
</clipPath>
</defs>
</svg>
