<svg width="60" height="60" viewBox="0 0 60 60" fill="none" xmlns="http://www.w3.org/2000/svg">
<g clip-path="url(#clip0_1859_4467)">
<path d="M30 60.0001C46.5686 60.0001 60 46.5686 60 30.0001C60 13.4315 46.5686 6.10352e-05 30 6.10352e-05C13.4315 6.10352e-05 2.28882e-05 13.4315 2.28882e-05 30.0001C2.28882e-05 46.5686 13.4315 60.0001 30 60.0001Z" fill="#6C27B3"/>
<path d="M43.9114 15.5768C40.3269 16.0306 36.5896 16.0148 32.8284 15.6567C27.5758 15.2526 19.899 12.8283 17.0707 17.6768C12.5271 25.4389 14.7681 35.3763 15.8269 44.1704L31.6164 59.9565C46.8962 59.1452 59.1421 46.901 59.956 31.6217L43.9114 15.5768Z" fill="#501A96"/>
<path d="M36.9407 12.8283H23.0592C17.4178 12.8283 12.8283 17.4179 12.8283 23.0593V36.9407C12.8283 42.5819 17.4178 47.1718 23.0594 47.1718H36.9408C42.582 47.1718 47.1719 42.5821 47.1719 36.9407V23.0593C47.1717 17.4179 42.5821 12.8283 36.9407 12.8283ZM43.7168 36.9408C43.7168 40.6831 40.6831 43.7168 36.9408 43.7168H23.0594C19.3171 43.7168 16.2833 40.6831 16.2833 36.9408V23.0594C16.2833 19.3171 19.3171 16.2833 23.0594 16.2833H36.9408C40.6831 16.2833 43.7168 19.3172 43.7168 23.0594V36.9408Z" fill="white"/>
<path d="M30 21.1175C25.1023 21.1175 21.1174 25.1023 21.1174 30.0001C21.1174 34.8975 25.1023 38.8823 30 38.8823C34.8978 38.8823 38.8823 34.8978 38.8823 30.0001C38.8823 25.1023 34.8978 21.1175 30 21.1175ZM30 35.4274C27.0025 35.4274 24.5724 32.9977 24.5724 30.0001C24.5724 27.0024 27.0025 24.5724 30 24.5724C32.9976 24.5724 35.4273 27.0023 35.4273 30.0001C35.4273 32.9976 32.9976 35.4274 30 35.4274Z" fill="white"/>
<path d="M41.0277 21.1845C41.0277 22.3599 40.0747 23.313 38.8992 23.313C37.7239 23.313 36.7708 22.3599 36.7708 21.1845C36.7708 20.009 37.7239 19.056 38.8992 19.056C40.075 19.056 41.0277 20.0088 41.0277 21.1845Z" fill="#D1D1D1"/>
<path d="M36.9408 12.8283H29.9328V16.2833H36.9408C40.6831 16.2833 43.7168 19.3172 43.7168 23.0594V36.9408C43.7168 40.6831 40.6831 43.7168 36.9408 43.7168H29.9328V47.1718H36.9408C42.582 47.1718 47.1717 42.5821 47.1717 36.9407V23.0593C47.1717 17.4179 42.5821 12.8283 36.9408 12.8283Z" fill="#D1D1D1"/>
<path d="M30 21.1175C29.9774 21.1175 29.9554 21.1191 29.9328 21.1191V24.5741C29.9551 24.5738 29.9774 24.5724 30 24.5724C32.9976 24.5724 35.4273 27.0023 35.4273 30.0001C35.4273 32.9976 32.9977 35.4274 30 35.4274C29.9774 35.4274 29.9551 35.426 29.9328 35.4257V38.8807C29.9554 38.8809 29.9774 38.8823 30 38.8823C34.8978 38.8823 38.8822 34.8977 38.8822 30.0001C38.8822 25.1023 34.8978 21.1175 30 21.1175Z" fill="#D1D1D1"/>
</g>
<defs>
<clipPath id="clip0_1859_4467">
<rect width="60" height="60" fill="white"/>
</clipPath>
</defs>
</svg>
