<svg width="18" height="25" viewBox="0 0 18 25" fill="none" xmlns="http://www.w3.org/2000/svg">
<path d="M16.5 9.25C16.5 13.4 9 23.4167 9 23.4167C9 23.4167 1.5 13.4 1.5 9.25C1.5 7.26088 2.29018 5.35322 3.6967 3.9467C5.10322 2.54018 7.01088 1.75 9 1.75C10.9891 1.75 12.8968 2.54018 14.3033 3.9467C15.7098 5.35322 16.5 7.26088 16.5 9.25V9.25Z" stroke="white" stroke-width="2" stroke-linecap="round" stroke-linejoin="round"/>
<path d="M9.00178 11.7504C10.3825 11.7504 11.5018 10.6312 11.5018 9.25044C11.5018 7.86973 10.3825 6.75044 9.00178 6.75044C7.62107 6.75044 6.50178 7.86973 6.50178 9.25044C6.50178 10.6312 7.62107 11.7504 9.00178 11.7504Z" stroke="white" stroke-width="2" stroke-linecap="round" stroke-linejoin="round"/>
</svg>
