<svg width="30" height="30" viewBox="0 0 30 30" fill="none" xmlns="http://www.w3.org/2000/svg">
<circle cx="15" cy="15" r="15" fill="#37AEE2"/>
<path d="M10.9857 22.7114C10.3412 22.7114 10.3998 22.477 10.224 21.8911L8.349 15.7387L22.7045 7.30122" fill="#C8DAEA"/>
<path d="M10.9857 22.7114C11.3959 22.7114 11.6302 22.477 11.9232 22.2426L14.5599 19.7231L11.2787 17.7309" fill="#A9C9DD"/>
<path d="M11.2787 17.7309L19.1888 23.5317C20.0092 24.059 20.7123 23.7661 20.9467 22.7114L24.1693 7.59419C24.4623 6.30513 23.642 5.71919 22.7631 6.12935L3.95447 13.395C2.724 13.8637 2.724 14.6254 3.72009 14.9184L8.58337 16.4419L19.7162 9.352C20.2435 9.05904 20.7123 9.17622 20.3607 9.58638" fill="#F6FBFE"/>
</svg>
