<svg width="30" height="30" viewBox="0 0 30 30" fill="none" xmlns="http://www.w3.org/2000/svg">
<path d="M8.01117 25.6938L8.49596 25.9362C10.5159 27.1482 12.7783 27.7138 15.0406 27.7138C22.1509 27.7138 27.9683 21.8963 27.9683 14.7861C27.9683 11.3925 26.5948 8.07982 24.1708 5.65588C21.7469 3.23193 18.5149 1.85836 15.0406 1.85836C7.93038 1.85836 2.1129 7.67583 2.1937 14.8669C2.1937 17.2908 2.92089 19.634 4.13286 21.6539L4.45605 22.1387L3.16328 26.9058L8.01117 25.6938Z" fill="white"/>
<path d="M25.3706 4.3631C22.6235 1.53517 18.826 0 14.9477 0C6.70625 0 0.0807982 6.70625 0.161596 14.8669C0.161596 17.4524 0.88878 19.9572 2.10075 22.2195L0 29.8953L7.83742 27.8754C10.019 29.0874 12.4429 29.6529 14.8669 29.6529C23.0275 29.6529 29.6529 22.9467 29.6529 14.7861C29.6529 10.827 28.1178 7.11024 25.3706 4.3631ZM14.9477 27.1482C12.7661 27.1482 10.5846 26.5826 8.72621 25.4514L8.24142 25.209L3.55512 26.421L4.76709 21.8155L4.4439 21.3307C0.88878 15.5941 2.58554 7.99902 8.40301 4.4439C14.2205 0.88878 21.7347 2.58554 25.2898 8.40301C28.845 14.2205 27.1482 21.7347 21.3307 25.2898C19.4724 26.5018 17.21 27.1482 14.9477 27.1482ZM22.0579 18.1796L21.1691 17.7756C21.1691 17.7756 19.8764 17.21 19.0684 16.806C18.9876 16.806 18.9068 16.7252 18.826 16.7252C18.5836 16.7252 18.422 16.806 18.2604 16.8868C18.2604 16.8868 18.1796 16.9676 17.0484 18.2604C16.9676 18.422 16.806 18.5028 16.6444 18.5028H16.5636C16.4828 18.5028 16.3212 18.422 16.2404 18.3412L15.8364 18.1796C14.9477 17.7756 14.1397 17.2908 13.4933 16.6444C13.3317 16.4828 13.0893 16.3212 12.9277 16.1596C12.3621 15.5941 11.7965 14.9477 11.3925 14.2205L11.3117 14.0589C11.2309 13.9781 11.2309 13.8973 11.1502 13.7357C11.1502 13.5741 11.1502 13.4125 11.2309 13.3317C11.2309 13.3317 11.5541 12.9277 11.7965 12.6853C11.9581 12.5237 12.0389 12.2813 12.2005 12.1197C12.3621 11.8773 12.4429 11.5541 12.3621 11.3117C12.2813 10.9078 11.3117 8.72621 11.0694 8.24142C10.9078 7.99902 10.7462 7.91822 10.5038 7.83742H10.2614C10.0998 7.83742 9.85738 7.83742 9.61499 7.83742C9.45339 7.83742 9.29179 7.91822 9.1302 7.91822L9.0494 7.99902C8.8878 8.07982 8.72621 8.24142 8.56461 8.32221C8.40301 8.48381 8.32221 8.64541 8.16062 8.807C7.59503 9.53419 7.27184 10.423 7.27184 11.3117C7.27184 11.9581 7.43343 12.6045 7.67583 13.1701L7.75663 13.4125C8.48381 14.9477 9.45339 16.3212 10.7462 17.5332L11.0694 17.8564C11.3117 18.0988 11.5541 18.2604 11.7157 18.5028C13.4125 19.9572 15.3517 21.0075 17.5332 21.5731C17.7756 21.6539 18.0988 21.6539 18.3412 21.7347C18.5836 21.7347 18.9068 21.7347 19.1492 21.7347C19.5532 21.7347 20.038 21.5731 20.3611 21.4115C20.6035 21.2499 20.7651 21.2499 20.9267 21.0883L21.0883 20.9267C21.2499 20.7651 21.4115 20.6843 21.5731 20.5227C21.7347 20.3611 21.8963 20.1995 21.9771 20.038C22.1387 19.7148 22.2195 19.3108 22.3003 18.9068C22.3003 18.7452 22.3003 18.5028 22.3003 18.3412C22.3003 18.3412 22.2195 18.2604 22.0579 18.1796Z" fill="#00E676"/>
</svg>
