<svg width="60" height="60" viewBox="0 0 60 60" fill="none" xmlns="http://www.w3.org/2000/svg">
<g clip-path="url(#clip0_1859_4462)">
<path d="M30.0001 60.0001C46.5687 60.0001 60.0002 46.5686 60.0002 30.0001C60.0002 13.4315 46.5687 0 30.0001 0C13.4315 0 2.28882e-05 13.4315 2.28882e-05 30.0001C2.28882e-05 46.5686 13.4315 60.0001 30.0001 60.0001Z" fill="#D42428"/>
<path d="M51.2123 8.78357C62.928 20.5003 62.9291 39.496 51.2123 51.2128C39.4965 62.9285 20.4998 62.929 8.78307 51.2128L51.2123 8.78357Z" fill="#CC202D"/>
<path d="M59.397 36.0085L44.549 21.161L27.0374 23.1549L16.4448 39.5537L36.2378 59.3462C47.875 56.8845 57.0238 47.6793 59.397 36.0085Z" fill="#BA202E"/>
<path d="M45.6992 24.2109C45.6992 21.6959 43.6618 19.6575 41.1483 19.6575H19.7968C17.2838 19.6575 15.2468 21.6964 15.2468 24.2109V36.4207C15.2468 38.9357 17.2842 40.9741 19.7968 40.9741H41.1479C43.6619 40.9741 45.6988 38.9352 45.6988 36.4207V24.2109H45.6992ZM27.4268 35.4667V23.9987L36.1236 29.7329L27.4268 35.4667Z" fill="white"/>
</g>
<defs>
<clipPath id="clip0_1859_4462">
<rect width="60" height="60" fill="white"/>
</clipPath>
</defs>
</svg>
